%FSLAX23Y23*%
%MOIN*%
G04 EasyPC Gerber Version 16.0.6 Build 3249 *
%ADD14C,0.00400*%
%ADD98C,0.00787*%
X0Y0D02*
D02*
D14*
D02*
D98*
X162Y157D02*
X158Y165D01*
Y172*
X162Y179*
X169Y183*
X177Y179*
X180Y172*
Y165*
Y172D02*
X184Y179D01*
X191Y183*
X199Y179*
X202Y172*
Y165*
X199Y157*
X202Y213D02*
X158Y231D01*
X202Y249*
X179Y445D02*
Y456D01*
X175*
X168Y453*
X164Y449*
X161Y441*
Y434*
X164Y427*
X168Y423*
X175Y419*
X190*
X197Y423*
X201Y427*
X205Y434*
Y441*
X201Y449*
X197Y453*
X190Y456*
X161Y478D02*
X190D01*
X179D02*
X186Y482D01*
X190Y489*
Y497*
X186Y504*
X179Y508*
X161*
X179Y567D02*
X186Y563D01*
X190Y556*
Y549*
X186Y541*
X179Y537*
X172*
X164Y541*
X161Y549*
Y556*
X164Y563*
X172Y567*
X161D02*
X205D01*
X180Y755D02*
Y766D01*
X177*
X169Y762*
X165Y758*
X162Y751*
Y744*
X165Y736*
X169Y733*
X177Y729*
X191*
X199Y733*
X202Y736*
X206Y744*
Y751*
X202Y758*
X199Y762*
X191Y766*
X162Y788D02*
X191D01*
X180D02*
X188Y792D01*
X191Y799*
Y806*
X188Y814*
X180Y817*
X162*
X180Y876D02*
X188Y873D01*
X191Y865*
Y858*
X188Y851*
X180Y847*
X173*
X165Y851*
X162Y858*
Y865*
X165Y873*
X173Y876*
X162D02*
X206D01*
X1070Y453D02*
X1067Y460D01*
Y468*
X1070Y475*
X1078Y479*
X1085Y475*
X1089Y468*
Y460*
Y468D02*
X1092Y475D01*
X1100Y479*
X1107Y475*
X1111Y468*
Y460*
X1107Y453*
X1111Y508D02*
X1067Y527D01*
X1111Y545*
X1606Y77D02*
Y51D01*
X1602Y47*
X1595*
X1591Y51*
Y62*
Y51D02*
X1587Y47D01*
X1580*
X1576Y51*
Y77*
X1547D02*
Y51D01*
X1543Y47*
X1536*
X1532Y51*
Y62*
Y51D02*
X1528Y47D01*
X1521*
X1517Y51*
Y77*
X1488D02*
Y51D01*
X1484Y47*
X1477*
X1473Y51*
Y62*
Y51D02*
X1469Y47D01*
X1462*
X1458Y51*
Y77*
X1425Y47D02*
X1421Y51D01*
X1425Y55*
X1429Y51*
X1425Y47*
X1370D02*
Y77D01*
Y73D02*
X1366Y77D01*
X1359*
X1355Y73*
Y62*
Y73D02*
X1351Y77D01*
X1344*
X1340Y73*
Y47*
X1311Y73D02*
X1303Y77D01*
X1292*
X1285Y73*
X1281Y66*
Y55*
X1285Y51*
X1292Y47*
X1300*
X1307Y51*
X1311Y55*
Y58*
X1307Y62*
X1300Y66*
X1292*
X1285Y62*
X1281Y58*
Y55D02*
Y47D01*
X1252D02*
Y77D01*
Y66D02*
X1248Y73D01*
X1241Y77*
X1233*
X1226Y73*
X1193Y47D02*
Y92D01*
Y62D02*
X1181D01*
X1163Y77*
X1181Y62D02*
X1163Y47D01*
X1133Y62D02*
X1104D01*
X1074Y51D02*
X1067Y47D01*
X1052*
X1045Y51*
Y58*
X1052Y62*
X1067*
X1074Y66*
Y73*
X1067Y77*
X1052*
X1045Y73*
X1008Y77D02*
X993D01*
X1001Y84D02*
Y51D01*
X997Y47*
X993*
X990Y51*
X927D02*
X930Y47D01*
X938*
X945*
X953Y51*
X956Y58*
Y69*
X953Y73*
X945Y77*
X938*
X930Y73*
X927Y69*
Y66*
X930Y62*
X938Y58*
X945*
X953Y62*
X956Y66*
X897Y77D02*
X883Y47D01*
X868Y77*
X809Y51D02*
X812Y47D01*
X820*
X827*
X835Y51*
X838Y58*
Y69*
X835Y73*
X827Y77*
X820*
X812Y73*
X809Y69*
Y66*
X812Y62*
X820Y58*
X827*
X835Y62*
X838Y66*
X779Y47D02*
Y77D01*
Y66D02*
X775Y73D01*
X768Y77*
X761*
X753Y73*
X750Y66*
Y47*
X720Y51D02*
X713Y47D01*
X698*
X691Y51*
Y58*
X698Y62*
X713*
X720Y66*
Y73*
X713Y77*
X698*
X691Y73*
X657Y47D02*
X654Y51D01*
X657Y55*
X661Y51*
X657Y47*
X572Y73D02*
X580Y77D01*
X591*
X598Y73*
X602Y66*
Y58*
X598Y51*
X591Y47*
X580*
X572Y51*
X543Y58D02*
X539Y51D01*
X532Y47*
X524*
X517Y51*
X513Y58*
Y66*
X517Y73*
X524Y77*
X532*
X539Y73*
X543Y66*
Y58*
X480Y47D02*
X477Y51D01*
X480Y55*
X484Y51*
X480Y47*
X425Y77D02*
Y58D01*
X421Y51*
X414Y47*
X406*
X399Y51*
X395Y58*
Y77D02*
Y47D01*
X366D02*
Y92D01*
Y62D02*
X355D01*
X336Y77*
X355Y62D02*
X336Y47D01*
X1614Y880D02*
X1599D01*
X1606D02*
Y924D01*
X1614D02*
X1599D01*
X1566Y880D02*
Y924D01*
X1540*
X1532Y920*
X1529Y913*
X1532Y906*
X1540Y902*
X1566*
X1540D02*
X1529Y880D01*
X1447D02*
Y924D01*
X1422*
X1414Y920*
X1411Y913*
X1414Y906*
X1422Y902*
X1447*
X1422D02*
X1411Y880D01*
X1359Y883D02*
X1363Y880D01*
X1370*
X1377*
X1385Y883*
X1388Y891*
Y902*
X1385Y906*
X1377Y909*
X1370*
X1363Y906*
X1359Y902*
Y898*
X1363Y894*
X1370Y891*
X1377*
X1385Y894*
X1388Y898*
X1329Y909D02*
X1315Y880D01*
X1300Y909*
X1211Y880D02*
X1193Y924D01*
X1174Y880*
X1204Y898D02*
X1182D01*
X0Y0D02*
M02*
