%FSLAX23Y23*%
%MOIN*%
G04 EasyPC Gerber Version 16.0.6 Build 3249 *
%ADD10C,0.00100*%
%ADD80C,0.00197*%
%ADD81C,0.00300*%
%ADD14C,0.00400*%
%ADD12C,0.00500*%
%ADD13C,0.00600*%
%ADD82C,0.00800*%
X0Y0D02*
D02*
D10*
X83Y190D02*
X103D01*
Y210*
X83*
Y190*
G36*
X103*
Y210*
X83*
Y190*
G37*
Y790D02*
X103D01*
Y810*
X83*
Y790*
G36*
X103*
Y810*
X83*
Y790*
G37*
X86Y482D02*
X106D01*
Y502*
X86*
Y482*
G36*
X106*
Y502*
X86*
Y482*
G37*
X315Y188D02*
X295D01*
Y168*
X315*
Y188*
G36*
X295*
Y168*
X315*
Y188*
G37*
X318Y855D02*
X338D01*
Y875*
X318*
Y855*
G36*
X338*
Y875*
X318*
Y855*
G37*
X415Y188D02*
X395D01*
Y168*
X415*
Y188*
G36*
X395*
Y168*
X415*
Y188*
G37*
X418Y855D02*
X438D01*
Y875*
X418*
Y855*
G36*
X438*
Y875*
X418*
Y855*
G37*
X515Y188D02*
X495D01*
Y168*
X515*
Y188*
G36*
X495*
Y168*
X515*
Y188*
G37*
X518Y855D02*
X538D01*
Y875*
X518*
Y855*
G36*
X538*
Y875*
X518*
Y855*
G37*
X615Y188D02*
X595D01*
Y168*
X615*
Y188*
G36*
X595*
Y168*
X615*
Y188*
G37*
X715D02*
X695D01*
Y168*
X715*
Y188*
G36*
X695*
Y168*
X715*
Y188*
G37*
X737Y871D02*
X717D01*
Y851*
X737*
Y871*
G36*
X717*
Y851*
X737*
Y871*
G37*
X815Y188D02*
X795D01*
Y168*
X815*
Y188*
G36*
X795*
Y168*
X815*
Y188*
G37*
X837Y871D02*
X817D01*
Y851*
X837*
Y871*
G36*
X817*
Y851*
X837*
Y871*
G37*
X937D02*
X917D01*
Y851*
X937*
Y871*
G36*
X917*
Y851*
X937*
Y871*
G37*
X985Y483D02*
X1005D01*
Y503*
X985*
Y483*
G36*
X1005*
Y503*
X985*
Y483*
G37*
X1037Y871D02*
X1017D01*
Y851*
X1037*
Y871*
G36*
X1017*
Y851*
X1037*
Y871*
G37*
X1159Y167D02*
X1179D01*
Y187*
X1159*
Y167*
G36*
X1179*
Y187*
X1159*
Y167*
G37*
X1259D02*
X1279D01*
Y187*
X1259*
Y167*
G36*
X1279*
Y187*
X1259*
Y167*
G37*
X1359D02*
X1379D01*
Y187*
X1359*
Y167*
G36*
X1379*
Y187*
X1359*
Y167*
G37*
X1459D02*
X1479D01*
Y187*
X1459*
Y167*
G36*
X1479*
Y187*
X1459*
Y167*
G37*
X1559D02*
X1579D01*
Y187*
X1559*
Y167*
G36*
X1579*
Y187*
X1559*
Y167*
G37*
X1659D02*
X1679D01*
Y187*
X1659*
Y167*
G36*
X1679*
Y187*
X1659*
Y167*
G37*
D02*
D12*
X3Y3D02*
X1971D01*
Y978*
X3*
Y3*
X332Y641D02*
X593D01*
Y357*
X332*
Y484*
X347*
Y514*
X332*
Y641*
X354Y494D02*
X357Y488D01*
X364Y485*
X376*
X382Y488*
X385Y494*
X382Y501*
X376Y504*
X364*
X357Y507*
X354Y513*
X357Y519*
X364Y522*
X376*
X382Y519*
X385Y513*
X420Y485D02*
Y522D01*
X404D02*
X435D01*
X454Y485D02*
Y522D01*
X470Y504*
X485Y522*
Y485*
X514Y504D02*
X520D01*
X526Y507*
X529Y513*
X526Y519*
X520Y522*
X514*
X507Y519*
X504Y513*
X507Y507*
X514Y504*
X507Y501*
X504Y494*
X507Y488*
X514Y485*
X520*
X526Y488*
X529Y494*
X526Y501*
X520Y504*
X554Y494D02*
X557Y488D01*
X564Y485*
X576*
X582Y488*
X585Y494*
X582Y501*
X576Y504*
X564*
X557Y507*
X554Y513*
X557Y519*
X564Y522*
X576*
X582Y519*
X585Y513*
X630Y493D02*
Y333D01*
X700*
Y493*
X630*
X651Y562D02*
X647Y565D01*
X644Y571*
Y581*
X647Y587*
X651Y590*
X657Y593*
X669*
X676Y590*
X679Y587*
X682Y581*
Y571*
X679Y565*
X676Y562*
X644Y537D02*
Y524D01*
Y531D02*
X682D01*
X676Y537*
X745Y570D02*
X742Y573D01*
X739Y580*
Y589*
X742Y595*
X745Y598*
X752Y602*
X764*
X770Y598*
X774Y595*
X777Y589*
Y580*
X774Y573*
X770Y570*
X739Y527D02*
Y552D01*
X761Y530*
X767Y527*
X774Y530*
X777Y536*
Y545*
X774Y552*
X800Y333D02*
Y493D01*
X730*
Y333*
X800*
X873Y401D02*
X845D01*
X838Y397*
X835Y391*
Y379*
X838Y372*
X845Y369*
X873*
X835Y344D02*
Y332D01*
Y338D02*
X873D01*
X867Y344*
X1090Y416D02*
Y313D01*
X889*
Y416*
X1090*
X1219Y394D02*
X1379D01*
Y464*
X1219*
Y394*
X1222Y476D02*
Y514D01*
X1243*
X1250Y511*
X1253Y504*
X1250Y498*
X1243Y495*
X1222*
X1243D02*
X1253Y476D01*
X1275Y479D02*
X1281Y476D01*
X1287*
X1293Y479*
X1297Y486*
X1293Y492*
X1287Y495*
X1281*
X1287D02*
X1293Y498D01*
X1297Y504*
X1293Y511*
X1287Y514*
X1281*
X1275Y511*
X1222Y636D02*
Y673D01*
X1243*
X1250Y670*
X1253Y664*
X1250Y658*
X1243Y655*
X1222*
X1243D02*
X1253Y636D01*
X1278D02*
X1290D01*
X1284D02*
Y673D01*
X1278Y667*
X1449Y519D02*
Y531D01*
X1452Y537*
X1455Y540*
X1461Y544*
X1467*
X1474Y540*
X1477Y537*
X1480Y531*
Y519*
X1477Y512*
X1474Y509*
X1467Y506*
X1461*
X1455Y509*
X1452Y512*
X1449Y519*
X1471Y515D02*
X1480Y506D01*
X1505D02*
X1517D01*
X1511D02*
Y544D01*
X1505Y537*
X1697Y886D02*
G75*
G03X1686I-5J12D01*
G01*
G75*
G02X1687Y885I0J-1*
G01*
X1679Y866*
G75*
G02X1678Y866I-1J0*
G01*
X1674Y868*
G75*
G03X1673Y868I0J-1*
G01*
X1664Y861*
G75*
G02X1663Y862I0J0*
G01*
X1655Y869*
G75*
G02X1655Y870I0J0*
G01*
X1662Y879*
G75*
G03X1662Y880I0J0*
G01*
X1658Y889*
G75*
G03X1657Y890I-1J0*
G01*
X1646Y892*
X1646Y903*
G75*
G02X1646Y904I1*
G01*
X1657Y906*
G75*
G03X1658Y906I0J1*
G01*
X1662Y916*
X1655Y925*
G75*
G02X1655Y926I0J0*
G01*
X1663Y934*
G75*
G02X1664Y934I0J0*
G01*
X1673Y928*
G75*
G03X1674Y928I0J0*
G01*
X1683Y932*
X1685Y943*
G75*
G02X1686Y944I1J0*
G01*
X1697*
G75*
G02X1698Y943I0J-1*
G01*
X1700Y932*
X1709Y928*
G75*
G03X1710Y928I0J1*
G01*
X1719Y934*
G75*
G02X1720Y934I0J0*
G01*
X1728Y926*
G75*
G02X1728Y925I0J0*
G01*
X1722Y916*
X1725Y906*
G75*
G03X1726Y906I1J0*
G01*
X1737Y904*
G75*
G02X1737Y903I0J-1*
G01*
Y892*
X1726Y890*
G75*
G03X1725Y889I0J-1*
G01*
X1722Y880*
G75*
G03X1722Y879I1J0*
G01*
X1728Y870*
G75*
G02X1728Y869I0J0*
G01*
X1720Y862*
G75*
G02X1719Y861I0J0*
G01*
X1710Y868*
G75*
G03X1709Y868I0J0*
G01*
X1705Y866*
G75*
G02X1704Y866I0J1*
G01*
X1697Y885*
G75*
G02X1697Y886I1J0*
G01*
X1728Y693D02*
Y853D01*
X1658*
Y693*
X1728*
X1753Y809D02*
X1790D01*
Y787*
X1787Y781*
X1781Y777*
X1774Y781*
X1771Y787*
Y809*
Y787D02*
X1753Y777D01*
Y734D02*
Y759D01*
X1774Y737*
X1781Y734*
X1787Y737*
X1790Y743*
Y752*
X1787Y759*
X1803Y512D02*
G75*
G03X1693Y622I-110D01*
G01*
G75*
G03X1583Y512J-110*
G01*
G75*
G03X1626Y409I146J0*
G01*
X1760*
G75*
G03X1803Y512I-103J103*
G01*
X1879Y394D02*
Y406D01*
Y400D02*
X1841D01*
Y394D02*
Y406D01*
X1879Y434D02*
X1841D01*
Y456*
X1844Y463*
X1850Y466*
X1857Y463*
X1860Y456*
Y434*
Y456D02*
X1879Y466D01*
X1841Y484D02*
X1879D01*
Y516*
Y534D02*
X1841D01*
Y566*
X1860Y559D02*
Y534D01*
X1879D02*
Y566D01*
Y584D02*
X1841D01*
Y603*
X1844Y609*
X1847Y613*
X1854Y616*
X1866*
X1872Y613*
X1875Y609*
X1879Y603*
Y584*
D02*
D13*
X118Y150D02*
X143Y175D01*
Y225*
X118Y250*
X68*
X43Y225*
Y175*
X68Y150*
X118*
Y750D02*
X143Y775D01*
Y825*
X118Y850*
X68*
X43Y825*
Y775*
X68Y750*
X118*
X121Y442D02*
X146Y467D01*
Y517*
X121Y542*
X71*
X46Y517*
Y467*
X71Y442*
X121*
X353Y815D02*
X378Y840D01*
Y890*
X353Y915*
X303*
X278Y890*
Y840*
X303Y815*
X353*
X355Y153D02*
X330Y128D01*
X280*
X255Y153*
Y203*
X280Y228*
X330*
X355Y203*
X378Y890D02*
X403Y915D01*
X453*
X478Y890*
Y840*
X453Y815*
X403*
X378Y840*
X455Y153D02*
X430Y128D01*
X380*
X355Y153*
Y203*
X380Y228*
X430*
X455Y203*
X478Y890D02*
X503Y915D01*
X553*
X578Y890*
Y840*
X553Y815*
X503*
X478Y840*
X555Y153D02*
X530Y128D01*
X480*
X455Y153*
Y203*
X480Y228*
X530*
X555Y203*
X655Y153D02*
X630Y128D01*
X580*
X555Y153*
Y203*
X580Y228*
X630*
X655Y203*
X755Y153D02*
X730Y128D01*
X680*
X655Y153*
Y203*
X680Y228*
X730*
X755Y203*
X777Y836D02*
X752Y811D01*
X702*
X677Y836*
Y886*
X702Y911*
X752*
X777Y886*
X780Y228D02*
X755Y203D01*
Y153*
X780Y128*
X830*
X855Y153*
Y203*
X830Y228*
X780*
X877Y836D02*
X852Y811D01*
X802*
X777Y836*
Y886*
X802Y911*
X852*
X877Y886*
X977Y836D02*
X952Y811D01*
X902*
X877Y836*
Y886*
X902Y911*
X952*
X977Y886*
X1002Y911D02*
X977Y886D01*
Y836*
X1002Y811*
X1052*
X1077Y836*
Y886*
X1052Y911*
X1002*
X1020Y443D02*
X1045Y468D01*
Y518*
X1020Y543*
X970*
X945Y518*
Y468*
X970Y443*
X1020*
X1194Y127D02*
X1219Y152D01*
Y202*
X1194Y227*
X1144*
X1119Y202*
Y152*
X1144Y127*
X1194*
X1219Y202D02*
X1244Y227D01*
X1294*
X1319Y202*
Y152*
X1294Y127*
X1244*
X1219Y152*
X1319Y202D02*
X1344Y227D01*
X1394*
X1419Y202*
Y152*
X1394Y127*
X1344*
X1319Y152*
X1419Y202D02*
X1444Y227D01*
X1494*
X1519Y202*
Y152*
X1494Y127*
X1444*
X1419Y152*
X1467Y452D02*
X1430D01*
Y398*
X1476Y384D02*
X1504D01*
X1519Y202D02*
X1544Y227D01*
X1594*
X1619Y202*
Y152*
X1594Y127*
X1544*
X1519Y152*
X1549Y398D02*
Y452D01*
X1513*
X1568Y913D02*
X1168D01*
Y707*
X1568*
Y913*
X1619Y202D02*
X1644Y227D01*
X1694*
X1719Y202*
Y152*
X1694Y127*
X1644*
X1619Y152*
D02*
D14*
X253Y249D02*
Y287D01*
X284*
X278Y268D02*
X253D01*
X319Y249D02*
Y287D01*
X303D02*
X334D01*
X353Y249D02*
Y287D01*
X372*
X378Y283*
X381Y280*
X384Y274*
Y262*
X381Y255*
X378Y252*
X372Y249*
X353*
X412D02*
X425D01*
X419D02*
Y287D01*
X412D02*
X425D01*
X691Y936D02*
X694Y930D01*
X701Y927*
X713*
X719Y930*
X722Y936*
X719Y942*
X713Y945*
X701*
X694Y949*
X691Y955*
X694Y961*
X701Y964*
X713*
X719Y961*
X722Y955*
X757Y927D02*
Y964D01*
X741D02*
X772D01*
X791D02*
Y927D01*
X822*
X854D02*
Y952D01*
Y961D02*
X891Y927*
Y952D01*
Y942D02*
X894Y949D01*
X901Y952*
X907*
X913Y949*
X916Y942*
Y927*
X941D02*
Y964D01*
Y939D02*
X951D01*
X966Y952*
X951Y939D02*
X966Y927D01*
X991Y964D02*
X1007Y927D01*
X1022Y964*
X1066Y927D02*
X1041D01*
X1063Y949*
X1066Y955*
X1063Y961*
X1057Y964*
X1047*
X1041Y961*
X1219Y256D02*
Y294D01*
X1241*
X1247Y291*
X1250Y285*
X1247Y278*
X1241Y275*
X1219*
X1241D02*
X1250Y256D01*
X1294Y260D02*
X1291Y256D01*
X1285*
X1278*
X1272Y260*
X1269Y266*
Y275*
X1272Y278*
X1278Y281*
X1285*
X1291Y278*
X1294Y275*
Y272*
X1291Y269*
X1285Y266*
X1278*
X1272Y269*
X1269Y272*
X1344D02*
X1341Y278D01*
X1335Y281*
X1328*
X1322Y278*
X1319Y272*
Y266*
X1322Y260*
X1328Y256*
X1335*
X1341Y260*
X1344Y266*
Y256D02*
Y294D01*
X1391Y275D02*
X1397Y272D01*
X1400Y266*
X1397Y260*
X1391Y256*
X1369*
Y294*
X1391*
X1397Y291*
X1400Y285*
X1397Y278*
X1391Y275*
X1369*
X1444Y260D02*
X1441Y256D01*
X1435*
X1428*
X1422Y260*
X1419Y266*
Y275*
X1422Y278*
X1428Y281*
X1435*
X1441Y278*
X1444Y275*
Y272*
X1441Y269*
X1435Y266*
X1428*
X1422Y269*
X1419Y272*
X1469Y278D02*
X1475Y281D01*
X1485*
X1491Y278*
X1494Y272*
Y263*
X1491Y260*
X1485Y256*
X1478*
X1472Y260*
X1469Y263*
Y266*
X1472Y269*
X1478Y272*
X1485*
X1491Y269*
X1494Y266*
Y263D02*
Y256D01*
X1519D02*
Y281D01*
Y272D02*
X1522Y278D01*
X1528Y281*
X1535*
X1541Y278*
X1591Y275D02*
X1597Y272D01*
X1600Y266*
X1597Y260*
X1591Y256*
X1569*
Y294*
X1591*
X1597Y291*
X1600Y285*
X1597Y278*
X1591Y275*
X1569*
X1619Y294D02*
Y256D01*
X1650*
X1669D02*
Y294D01*
X1700*
X1694Y275D02*
X1669D01*
Y256D02*
X1700D01*
D02*
D80*
X322Y755D02*
X327D01*
X329Y754*
X330Y753*
X331Y750*
Y748*
X330Y745*
X329Y744*
X327Y743*
X322*
X319Y744*
X318Y745*
X317Y748*
Y750*
X318Y753*
X319Y754*
X322Y755*
X317Y735D02*
X327D01*
X323D02*
X325Y734D01*
X327Y732*
Y729*
X325Y727*
X323Y726*
X317*
X525Y755D02*
X530D01*
X532Y754*
X534Y753*
X535Y750*
Y748*
X534Y745*
X532Y744*
X530Y743*
X525*
X523Y744*
X521Y745*
X520Y748*
Y750*
X521Y753*
X523Y754*
X525Y755*
X520Y730D02*
X532D01*
X534Y729*
Y728*
X532Y727*
X529Y733D02*
Y728D01*
X520Y711D02*
X532D01*
X534Y710*
Y708*
X532Y707*
X529Y713D02*
Y708D01*
D02*
D81*
X109Y704D02*
X146D01*
Y682*
X143Y676*
X137Y673*
X131Y676*
X128Y682*
Y704*
X134Y654D02*
X112D01*
X109Y651*
Y645*
X112Y641*
X121*
X112D02*
X109Y638D01*
Y632*
X112Y629*
X134*
X109Y604D02*
X134D01*
X125D02*
X131Y601D01*
X134Y595*
Y588*
X131Y582*
X1217Y929D02*
Y967D01*
X1202D02*
X1233D01*
X1252Y929D02*
Y954D01*
Y945D02*
X1255Y951D01*
X1261Y954*
X1267*
X1273Y951*
X1314Y929D02*
Y954D01*
Y964D02*
X1377Y945*
X1373Y951D01*
X1367Y954*
X1361*
X1355Y951*
X1352Y945*
Y942*
X1355Y935*
X1361Y932*
X1367*
X1373Y935*
X1377Y942*
Y954D02*
Y929D01*
X1373Y923*
X1367Y920*
X1358*
X1352Y923*
X1427Y945D02*
X1423Y951D01*
X1417Y954*
X1411*
X1405Y951*
X1402Y945*
Y942*
X1405Y935*
X1411Y932*
X1417*
X1423Y935*
X1427Y942*
Y954D02*
Y929D01*
X1423Y923*
X1417Y920*
X1408*
X1402Y923*
X1477Y932D02*
X1473Y929D01*
X1467*
X1461*
X1455Y932*
X1452Y939*
Y948*
X1455Y951*
X1461Y954*
X1467*
X1473Y951*
X1477Y948*
Y945*
X1473Y942*
X1467Y939*
X1461*
X1455Y942*
X1452Y945*
X1502Y929D02*
Y954D01*
Y945D02*
X1505Y951D01*
X1511Y954*
X1517*
X1523Y951*
D02*
D82*
X173Y782D02*
X226D01*
Y659*
X173*
Y782*
X1220Y538D02*
Y623D01*
X1403*
Y538*
X1220*
X0Y0D02*
M02*
