%FSLAX23Y23*%
%MOIN*%
G04 EasyPC Gerber Version 16.0.6 Build 3249 *
%ADD72O,0.06600X0.12600*%
%ADD101R,0.01742X0.03750*%
%ADD107R,0.02600X0.04600*%
%ADD102R,0.06506X0.06506*%
%ADD106R,0.06900X0.07690*%
%ADD111R,0.05029X0.01781*%
%ADD109R,0.04200X0.03000*%
%ADD110R,0.04930X0.04540*%
%ADD112C,0.05400*%
%ADD105C,0.07700*%
%ADD103R,0.06506X0.06506*%
%ADD104R,0.08600X0.06600*%
%AMT108*0 Octagon Pad at angle 0*4,1,8,-0.01366,-0.03300,0.01366,-0.03300,0.03300,-0.01366,0.03300,0.01366,0.01366,0.03300,-0.01366,0.03300,-0.03300,0.01366,-0.03300,-0.01366,-0.01366,-0.03300,0*%
%ADD108T108*%
X0Y0D02*
D02*
D72*
X305Y178D03*
X328Y865D03*
X405Y178D03*
X428Y865D03*
X505Y178D03*
X528Y865D03*
X605Y178D03*
X705D03*
X727Y861D03*
X805Y178D03*
X827Y861D03*
X927D03*
X1027D03*
X1169Y177D03*
X1269D03*
X1369D03*
X1469D03*
X1569D03*
X1669D03*
D02*
D101*
X348Y383D03*
Y615D03*
X373Y383D03*
Y615D03*
X399Y383D03*
Y615D03*
X424Y383D03*
Y615D03*
X450Y383D03*
Y615D03*
X476Y383D03*
Y615D03*
X501Y383D03*
Y615D03*
X527Y383D03*
Y615D03*
X552Y383D03*
Y615D03*
X578Y383D03*
Y615D03*
D02*
D102*
X665Y368D03*
Y458D03*
X765Y368D03*
Y458D03*
X1693Y728D03*
Y818D03*
D02*
D103*
X1254Y429D03*
X1344D03*
D02*
D104*
X1693Y462D03*
Y562D03*
D02*
D105*
X1268Y810D03*
X1368D03*
X1468D03*
D02*
D106*
X1256Y580D03*
X1366D03*
D02*
D107*
X1452Y373D03*
X1490Y463D03*
X1527Y373D03*
D02*
D108*
X93Y200D03*
Y800D03*
X96Y492D03*
X995Y493D03*
D02*
D109*
X72Y630D03*
Y686D03*
D02*
D110*
X199Y685D03*
Y755D03*
D02*
D111*
X931Y339D03*
Y364D03*
Y390D03*
X1048Y339D03*
Y390D03*
D02*
D112*
X234Y563D03*
X1027Y612D03*
X1092Y696D03*
X1168Y310D03*
X0Y0D02*
M02*
