%FSLAX23Y23*%
%MOIN*%
G04 EasyPC Gerber Version 16.0.6 Build 3249 *
%AMT92*0 Octagon Pad at angle 0*4,1,8,-0.01243,-0.03000,0.01243,-0.03000,0.03000,-0.01243,0.03000,0.01243,0.01243,0.03000,-0.01243,0.03000,-0.03000,0.01243,-0.03000,-0.01243,-0.01243,-0.03000,0*%
%ADD92T92*%
%ADD18O,0.06000X0.12000*%
%ADD84R,0.01142X0.03150*%
%ADD91R,0.02000X0.04000*%
%ADD85R,0.05906X0.05906*%
%ADD89R,0.06300X0.07090*%
%ADD12C,0.00500*%
%ADD96C,0.00591*%
%ADD15C,0.01000*%
%ADD99R,0.04429X0.01181*%
%ADD93R,0.03600X0.02400*%
%ADD94R,0.04330X0.03940*%
%ADD97C,0.04800*%
%ADD88C,0.07100*%
%ADD86R,0.05906X0.05906*%
%ADD87R,0.08000X0.06000*%
X0Y0D02*
D02*
D12*
X22Y952D02*
X23Y25D01*
X1944Y32*
Y960*
X22Y952*
X46Y650D02*
X99D01*
Y609*
X46*
Y650*
X76Y157D02*
X51Y182D01*
Y217*
X76Y242*
X111*
X136Y217*
Y182*
X111Y157*
X76*
X77Y761D02*
X55Y784D01*
Y816*
X77Y838*
X109*
X132Y816*
Y784*
X109Y761*
X77*
X80Y453D02*
X57Y476D01*
Y508*
X80Y530*
X112*
X134Y508*
Y476*
X112Y453*
X80*
X103Y669D02*
Y661D01*
X42*
Y710*
X103*
Y703*
X165*
Y717*
X234*
Y653*
X165*
Y669*
X103*
X182Y787D02*
Y842D01*
G75*
G02X187Y854I17*
G01*
X209Y876*
G75*
G02X221Y881I12J-12*
G01*
X285*
Y895*
G75*
G02X370I43*
G01*
Y835*
G75*
G02X348Y798I-43*
G01*
X366Y781*
X655*
X688Y814*
G75*
G02X685Y831I39J17*
G01*
Y891*
G75*
G02X738Y932I43*
G01*
X754Y948*
G75*
G02X765Y953I11J-11*
G01*
X1645*
G75*
G02X1656Y948I0J-15*
G01*
X1700Y903*
G75*
G02X1705Y892I-11J-11*
G01*
Y860*
X1735*
Y842*
X1742*
G75*
G02X1755Y836J-17*
G01*
X1777Y811*
G75*
G02X1781Y800I-13J-11*
G01*
Y205*
G75*
G02X1777Y193I-17*
G01*
X1751Y165*
G75*
G02X1738Y160I-12J12*
G01*
X1711*
Y147*
G75*
G02X1626I-43*
G01*
Y207*
G75*
G02X1711I43*
G01*
Y194*
X1731*
X1747Y212*
Y793*
X1735Y807*
Y776*
X1651*
Y793*
X1631*
X1618Y780*
Y698*
G75*
G02X1613Y687I-15J0*
G01*
X1415Y488*
G75*
G02X1404Y484I-11J11*
G01*
X1270*
G75*
G02X1259Y488I0J15*
G01*
X1245Y502*
G75*
G02X1241Y513I11J11*
G01*
Y532*
X1212*
Y560*
X1151*
X1140Y549*
Y406*
G75*
G02X1139Y403I-15J0*
G01*
G75*
G02X1143Y409I15J-4*
G01*
X1168Y434*
G75*
G02X1179Y439I11J-11*
G01*
X1212*
Y471*
X1296*
Y387*
X1212*
Y408*
X1186*
X1170Y392*
Y378*
G75*
G02X1165Y367I-15J0*
G01*
X1126Y328*
G75*
G02X1115Y323I-11J11*
G01*
X1083*
Y320*
X1013*
Y357*
X1083*
Y354*
X1108*
X1139Y385*
Y398*
G75*
G02X1139Y401I15J0*
G01*
G75*
G02X1135Y395I-15J4*
G01*
X1120Y379*
G75*
G02X1109Y375I-11J11*
G01*
X1083*
Y372*
X1013*
Y408*
X1083*
Y405*
X1102*
X1109Y412*
Y555*
G75*
G02X1113Y566I15J0*
G01*
X1133Y586*
G75*
G02X1144Y591I11J-11*
G01*
X1212*
Y628*
X1300*
Y532*
X1272*
Y519*
X1277Y515*
X1397*
X1587Y704*
Y786*
G75*
G02X1591Y797I15J0*
G01*
X1614Y820*
G75*
G02X1625Y824I11J-11*
G01*
X1651*
Y860*
X1674*
Y886*
X1638Y922*
X1057*
G75*
G02X1070Y891I-29J-31*
G01*
Y831*
G75*
G02X1044Y792I-43*
G01*
Y644*
G75*
G02X1063Y612I-17J-32*
G01*
G75*
G02X990I-37*
G01*
G75*
G02X1010Y644I37*
G01*
Y792*
G75*
G02X985Y831I17J39*
G01*
Y891*
G75*
G02X998Y922I43*
G01*
X950*
G75*
G02X965Y891I-23J-31*
G01*
Y831*
G75*
G02X889I-38*
G01*
Y891*
G75*
G02X904Y922I38*
G01*
X857*
G75*
G02X870Y891I-29J-31*
G01*
Y831*
G75*
G02X843Y792I-43*
G01*
Y708*
G75*
G02X838Y696I-17*
G01*
X799Y657*
G75*
G02X787Y652I-12J12*
G01*
X430*
X417Y640*
X483*
Y644*
X519*
Y640*
X592*
Y599*
X825*
G75*
G02X837Y594J-17*
G01*
X864Y566*
G75*
G02X869Y554I-12J-12*
G01*
Y415*
X877Y408*
X896*
Y408*
X965*
Y346*
X961*
Y325*
X900*
Y346*
X896*
Y349*
X861*
G75*
G02X850Y354I0J15*
G01*
X821Y382*
G75*
G02X817Y393I11J11*
G01*
Y540*
X808Y549*
X355*
G75*
G02X344Y553I0J15*
G01*
X337Y561*
G75*
G02X332Y572I11J11*
G01*
Y587*
X329*
Y644*
X366*
Y640*
X381*
Y644*
X382*
Y645*
G75*
G02X387Y657I17*
G01*
X411Y681*
G75*
G02X423Y686I12J-12*
G01*
X780*
X809Y715*
Y793*
G75*
G02X785Y831I18J38*
G01*
Y891*
G75*
G02X798Y922I43*
G01*
X771*
X763Y914*
G75*
G02X770Y891I-36J-23*
G01*
Y831*
G75*
G02X711Y792I-43*
G01*
X673Y754*
G75*
G02X662Y750I-11J11*
G01*
X368*
X326Y707*
Y556*
X387Y495*
X518*
G75*
G02X529Y490I0J-15*
G01*
X536Y483*
Y484*
G75*
G02X540Y495I15J0*
G01*
X579Y534*
G75*
G02X590Y538I11J-11*
G01*
X749*
G75*
G02X759Y534I0J-15*
G01*
X776Y518*
G75*
G02X780Y507I-11J-11*
G01*
Y500*
X807*
Y416*
X723*
Y500*
X749*
Y500*
X742Y507*
X596*
X567Y478*
Y453*
G75*
G02X568Y444I-15J-7*
G01*
Y411*
X571*
Y407*
X592*
Y359*
X571*
Y355*
X544*
Y334*
X551Y327*
X623*
Y410*
X707*
Y326*
X683*
Y324*
G75*
G02X678Y312I-17*
G01*
X667Y301*
X1132*
G75*
G02X1131Y310I36J8*
G01*
G75*
G02X1204I37*
G01*
G75*
G02X1188Y279I-37*
G01*
X1457*
G75*
G02X1469Y274J-17*
G01*
X1482Y262*
G75*
G02X1487Y250I-12J-12*
G01*
Y246*
G75*
G02X1511Y207I-18J-38*
G01*
Y147*
G75*
G02X1426I-43*
G01*
Y207*
G75*
G02X1449Y245I43*
G01*
X1388*
G75*
G02X1411Y207I-19J-38*
G01*
Y147*
G75*
G02X1387Y109I-43*
G01*
Y96*
G75*
G02X1382Y84I-17*
G01*
X1370Y72*
G75*
G02X1358Y67I-12J12*
G01*
X418*
G75*
G02X406Y72J17*
G01*
X393Y84*
G75*
G02X388Y96I12J12*
G01*
Y109*
G75*
G02X363Y148I17J39*
G01*
Y208*
G75*
G02X388Y247I43*
G01*
Y286*
X361Y313*
G75*
G02X356Y325I12J12*
G01*
Y355*
X329*
Y394*
X222Y501*
G75*
G02X217Y513I12J12*
G01*
Y531*
G75*
G02X198Y563I17J32*
G01*
G75*
G02X271I37*
G01*
G75*
G02X251Y531I-37*
G01*
Y520*
X360Y411*
X360Y411*
X443*
Y407*
X509*
Y411*
X534*
Y441*
X511Y464*
X380*
G75*
G02X369Y468I0J15*
G01*
X300Y538*
G75*
G02X295Y549I11J11*
G01*
Y714*
G75*
G02X300Y725I15J0*
G01*
X339Y764*
X317Y785*
G75*
G02X312Y795I11J11*
G01*
G75*
G02X285Y835I15J40*
G01*
Y847*
X228*
X216Y835*
Y787*
X234*
Y723*
X165*
Y787*
X182*
X348Y208D02*
Y148D01*
G75*
G02X263I-43*
G01*
Y208*
G75*
G02X348I43*
G01*
X385Y835D02*
Y895D01*
G75*
G02X470I43*
G01*
Y835*
G75*
G02X385I-43*
G01*
X485D02*
Y895D01*
G75*
G02X570I43*
G01*
Y835*
G75*
G02X485I-43*
G01*
X703Y496D02*
Y420D01*
X627*
Y496*
X703*
X727Y330D02*
Y406D01*
X803*
Y330*
X727*
X977Y451D02*
X952Y476D01*
Y511*
X977Y536*
X1012*
X1037Y511*
Y476*
X1012Y451*
X977*
X1125Y681D02*
G75*
G02X1055Y696I-33J15D01*
G01*
G75*
G02X1125Y712I37*
G01*
X1401*
G75*
G02X1411Y713I7J-15*
G01*
X1437*
X1450Y727*
Y765*
G75*
G02X1420Y810I17J45*
G01*
G75*
G02X1516I48*
G01*
G75*
G02X1484Y765I-48*
G01*
Y720*
G75*
G02X1479Y708I-17*
G01*
X1456Y684*
G75*
G02X1444Y679I-12J12*
G01*
X1414*
X1382Y648*
Y628*
X1410*
Y532*
X1322*
Y628*
X1351*
Y654*
G75*
G02X1355Y665I15J0*
G01*
X1371Y681*
X1125*
X1312Y810D02*
G75*
G02X1224I-44D01*
G01*
G75*
G02X1312I44*
G01*
X1386Y414D02*
Y387D01*
X1302*
Y471*
X1386*
Y445*
X1396*
G75*
G02X1407Y440I0J-15*
G01*
X1442Y406*
X1475*
Y341*
X1430*
Y374*
X1390Y414*
X1386*
X1412Y810D02*
G75*
G02X1324I-44D01*
G01*
G75*
G02X1412I44*
G01*
X1509Y345D02*
Y402D01*
X1546*
Y345*
X1509*
X1512Y445D02*
Y431D01*
X1467*
Y496*
X1512*
Y479*
X1641*
Y504*
X1746*
Y419*
X1641*
Y445*
X1512*
X1530Y147D02*
Y207D01*
G75*
G02X1607I38*
G01*
Y147*
G75*
G02X1530I-38*
G01*
X1678Y604D02*
Y686D01*
X1651*
Y770*
X1735*
Y686*
X1709*
Y604*
X1746*
Y519*
X1641*
Y604*
X1678*
X23Y630D02*
G36*
X23Y492D01*
X57*
Y508*
X80Y530*
X112*
X134Y508*
Y492*
X231*
X222Y501*
G75*
G02X217Y513I12J12*
G01*
Y531*
G75*
G02X198Y563I17J32*
G01*
G75*
G02X271I37*
G01*
G75*
G02X251Y531I-37*
G01*
Y520*
X360Y411*
X360Y411*
X443*
Y407*
X509*
Y411*
X534*
Y441*
X511Y464*
X380*
G75*
G02X369Y468I0J15*
G01*
X300Y538*
G75*
G02X295Y549I11J11*
G01*
Y630*
X99*
Y609*
X46*
Y630*
X23*
G37*
X46D02*
G36*
Y650D01*
X99*
Y630*
X295*
Y685*
X234*
Y653*
X165*
Y669*
X103*
Y661*
X42*
Y685*
X23*
X23Y630*
X46*
G37*
X1059D02*
G36*
G75*
G02X1063Y612I-32J-18D01*
G01*
G75*
G02X990I-37*
G01*
G75*
G02X1010Y644I37*
G01*
Y792*
G75*
G02X985Y831I17J39*
G01*
Y891*
G75*
G02X998Y922I43*
G01*
X950*
G75*
G02X965Y891I-23J-31*
G01*
Y831*
G75*
G02X889I-38*
G01*
Y891*
G75*
G02X904Y922I38*
G01*
X857*
G75*
G02X870Y891I-29J-31*
G01*
Y831*
G75*
G02X843Y792I-43*
G01*
Y708*
G75*
G02X838Y696I-17*
G01*
X799Y657*
G75*
G02X787Y652I-12J12*
G01*
X430*
X417Y640*
X483*
Y644*
X519*
Y640*
X592*
Y599*
X825*
G75*
G02X837Y594J-17*
G01*
X864Y566*
G75*
G02X869Y554I-12J-12*
G01*
Y492*
X952*
Y511*
X977Y536*
X1012*
X1037Y511*
Y492*
X1109*
Y555*
G75*
G02X1113Y566I15J0*
G01*
X1133Y586*
G75*
G02X1144Y591I11J-11*
G01*
X1212*
Y628*
X1300*
Y532*
X1272*
Y519*
X1277Y515*
X1397*
X1512Y630*
X1382*
Y628*
X1410*
Y532*
X1322*
Y628*
X1351*
Y630*
X1059*
G37*
X1351D02*
G36*
Y654D01*
G75*
G02X1355Y665I15J0*
G01*
X1371Y681*
X1125*
G75*
G02X1057Y685I-33J15*
G01*
X1044*
Y644*
G75*
G02X1059Y630I-17J-32*
G01*
X1351*
G37*
X1512D02*
G36*
X1568Y685D01*
X1456*
X1456Y684*
G75*
G02X1444Y679I-12J12*
G01*
X1414*
X1382Y648*
Y630*
X1512*
G37*
X1556D02*
G36*
X1418Y492D01*
X1467*
Y496*
X1512*
Y479*
X1641*
Y504*
X1746*
Y492*
X1747*
Y630*
X1709*
Y604*
X1746*
Y519*
X1641*
Y604*
X1678*
Y630*
X1556*
G37*
X1678D02*
G36*
Y685D01*
X1612*
X1556Y630*
X1678*
G37*
X1747D02*
G36*
Y685D01*
X1709*
Y630*
X1747*
G37*
X1781D02*
G36*
Y492D01*
X1944*
Y630*
X1781*
G37*
X1944D02*
G36*
Y685D01*
X1781*
Y630*
X1944*
G37*
X23Y200D02*
G36*
X23Y25D01*
X1944Y32*
Y200*
X1781*
G75*
G02X1777Y193I-16J5*
G01*
X1751Y165*
G75*
G02X1738Y160I-12J12*
G01*
X1711*
Y147*
G75*
G02X1626I-43*
G01*
Y200*
X1607*
Y147*
G75*
G02X1530I-38*
G01*
Y200*
X1511*
Y147*
G75*
G02X1426I-43*
G01*
Y207*
G75*
G02X1449Y245I43*
G01*
X1388*
G75*
G02X1411Y207I-19J-38*
G01*
Y147*
G75*
G02X1387Y109I-43*
G01*
Y96*
G75*
G02X1382Y84I-17*
G01*
X1370Y72*
G75*
G02X1358Y67I-12J12*
G01*
X418*
G75*
G02X406Y72J17*
G01*
X393Y84*
G75*
G02X388Y96I12J12*
G01*
Y109*
G75*
G02X363Y148I17J39*
G01*
Y200*
X348*
Y148*
G75*
G02X263I-43*
G01*
Y200*
X136*
Y182*
X111Y157*
X76*
X51Y182*
Y200*
X23*
G37*
X51D02*
G36*
Y217D01*
X76Y242*
X111*
X136Y217*
Y200*
X263*
Y208*
G75*
G02X348I43*
G01*
Y200*
X363*
Y208*
G75*
G02X388Y247I43*
G01*
Y286*
X361Y313*
G75*
G02X356Y325I12J12*
G01*
Y355*
X329*
Y368*
X23*
X23Y200*
X51*
G37*
X1530D02*
G36*
Y207D01*
G75*
G02X1607I38*
G01*
Y200*
X1626*
Y207*
G75*
G02X1711I43*
G01*
Y194*
X1731*
X1747Y212*
Y368*
X1546*
Y345*
X1509*
Y368*
X1475*
Y341*
X1430*
Y368*
X1166*
G75*
G02X1165Y367I-12J10*
G01*
X1126Y328*
G75*
G02X1115Y323I-11J11*
G01*
X1083*
Y320*
X1013*
Y357*
X1083*
Y354*
X1108*
X1139Y385*
Y398*
G75*
G02X1139Y401I15J0*
G01*
G75*
G02X1135Y395I-15J4*
G01*
X1120Y379*
G75*
G02X1109Y375I-11J11*
G01*
X1083*
Y372*
X1013*
Y408*
X1083*
Y405*
X1102*
X1109Y412*
Y492*
X1037*
Y476*
X1012Y451*
X977*
X952Y476*
Y492*
X869*
Y415*
X877Y408*
X896*
Y408*
X965*
Y346*
X961*
Y325*
X900*
Y346*
X896*
Y349*
X861*
G75*
G02X850Y354I0J15*
G01*
X835Y368*
X803*
Y330*
X727*
Y368*
X707*
Y326*
X683*
Y324*
G75*
G02X678Y312I-17*
G01*
X667Y301*
X1132*
G75*
G02X1131Y310I36J8*
G01*
G75*
G02X1204I37*
G01*
G75*
G02X1188Y279I-37*
G01*
X1457*
G75*
G02X1469Y274J-17*
G01*
X1482Y262*
G75*
G02X1487Y250I-12J-12*
G01*
Y246*
G75*
G02X1511Y207I-18J-38*
G01*
Y200*
X1530*
G37*
X1944D02*
G36*
Y368D01*
X1781*
Y205*
G75*
G02X1781Y200I-17*
G01*
X1944*
G37*
X22Y800D02*
G36*
X23Y685D01*
X42*
Y710*
X103*
Y703*
X165*
Y717*
X234*
Y685*
X295*
Y714*
G75*
G02X300Y725I15J0*
G01*
X339Y764*
X317Y785*
G75*
G02X312Y795I11J11*
G01*
G75*
G02X285Y835I15J40*
G01*
Y847*
X228*
X216Y835*
Y787*
X234*
Y723*
X165*
Y787*
X182*
Y800*
X132*
Y784*
X109Y761*
X77*
X55Y784*
Y800*
X22*
G37*
X55D02*
G36*
Y816D01*
X77Y838*
X109*
X132Y816*
Y800*
X182*
Y842*
G75*
G02X187Y854I17*
G01*
X209Y876*
G75*
G02X221Y881I12J-12*
G01*
X285*
Y895*
G75*
G02X370I43*
G01*
Y835*
G75*
G02X352Y800I-43J0*
G01*
X404*
G75*
G02X385Y835I24J35*
G01*
Y895*
G75*
G02X470I43*
G01*
Y835*
G75*
G02X452Y800I-43*
G01*
X504*
G75*
G02X485Y835I24J35*
G01*
Y895*
G75*
G02X570I43*
G01*
Y835*
G75*
G02X552Y800I-43*
G01*
X674*
X688Y814*
G75*
G02X685Y831I39J17*
G01*
Y891*
G75*
G02X738Y932I43*
G01*
X754Y948*
G75*
G02X765Y953I11J-11*
G01*
X1645*
G75*
G02X1656Y948I0J-15*
G01*
X1700Y903*
G75*
G02X1705Y892I-11J-11*
G01*
Y860*
X1735*
Y842*
X1742*
G75*
G02X1755Y836J-17*
G01*
X1777Y811*
G75*
G02X1781Y800I-13J-11*
G01*
Y800*
X1944*
Y960*
X22Y952*
X22Y800*
X55*
G37*
X352D02*
G36*
G75*
G02X348Y798I-24J35D01*
G01*
X366Y781*
X655*
X674Y800*
X552*
G75*
G02X504I-24J35*
G01*
X452*
G75*
G02X404I-24J35*
G01*
X352*
G37*
X1056D02*
G36*
G75*
G02X1044Y792I-29J31D01*
G01*
Y685*
X1057*
G75*
G02X1055Y696I35J11*
G01*
G75*
G02X1125Y712I37*
G01*
X1401*
G75*
G02X1411Y713I7J-15*
G01*
X1437*
X1450Y727*
Y765*
G75*
G02X1421Y800I17J45*
G01*
X1410*
G75*
G02X1325I-43J10*
G01*
X1310*
G75*
G02X1225I-43J10*
G01*
X1056*
G37*
X1225D02*
G36*
G75*
G02X1224Y810I43J10D01*
G01*
G75*
G02X1312I44*
G01*
G75*
G02X1310Y800I-44J0*
G01*
X1325*
G75*
G02X1324Y810I43J10*
G01*
G75*
G02X1412I44*
G01*
G75*
G02X1410Y800I-44J0*
G01*
X1421*
G75*
G02X1420Y810I47J10*
G01*
G75*
G02X1516I48*
G01*
G75*
G02X1515Y800I-48J0*
G01*
X1594*
X1614Y820*
G75*
G02X1625Y824I11J-11*
G01*
X1651*
Y860*
X1674*
Y886*
X1638Y922*
X1057*
G75*
G02X1070Y891I-29J-31*
G01*
Y831*
G75*
G02X1056Y800I-43*
G01*
X1225*
G37*
X1515D02*
G36*
G75*
G02X1484Y765I-47J10D01*
G01*
Y720*
G75*
G02X1479Y708I-17*
G01*
X1456Y685*
X1568*
X1587Y704*
Y786*
G75*
G02X1591Y797I15J0*
G01*
X1594Y800*
X1515*
G37*
X1781D02*
G36*
Y685D01*
X1944*
Y800*
X1781*
G37*
X23Y492D02*
G36*
X23Y368D01*
X329*
Y394*
X231Y492*
X134*
Y476*
X112Y453*
X80*
X57Y476*
Y492*
X23*
G37*
X581D02*
G36*
X567Y478D01*
Y453*
G75*
G02X568Y444I-15J-7*
G01*
Y411*
X571*
Y407*
X592*
Y359*
X571*
Y355*
X544*
Y334*
X551Y327*
X623*
Y410*
X707*
Y368*
X727*
Y406*
X803*
Y368*
X835*
X821Y382*
G75*
G02X817Y393I11J11*
G01*
Y540*
X808Y549*
X355*
G75*
G02X344Y553I0J15*
G01*
X337Y561*
G75*
G02X332Y572I11J11*
G01*
Y587*
X329*
Y644*
X366*
Y640*
X381*
Y644*
X382*
Y645*
G75*
G02X387Y657I17*
G01*
X411Y681*
G75*
G02X423Y686I12J-12*
G01*
X780*
X809Y715*
Y793*
G75*
G02X785Y831I18J38*
G01*
Y891*
G75*
G02X798Y922I43*
G01*
X771*
X763Y914*
G75*
G02X770Y891I-36J-23*
G01*
Y831*
G75*
G02X711Y792I-43*
G01*
X673Y754*
G75*
G02X662Y750I-11J11*
G01*
X368*
X326Y707*
Y556*
X387Y495*
X518*
G75*
G02X529Y490I0J-15*
G01*
X536Y483*
Y484*
G75*
G02X540Y495I15J0*
G01*
X579Y534*
G75*
G02X590Y538I11J-11*
G01*
X749*
G75*
G02X759Y534I0J-15*
G01*
X776Y518*
G75*
G02X780Y507I-11J-11*
G01*
Y500*
X807*
Y416*
X723*
Y492*
X703*
Y420*
X627*
Y492*
X581*
G37*
X627D02*
G36*
Y496D01*
X703*
Y492*
X723*
Y500*
X749*
Y500*
X742Y507*
X596*
X581Y492*
X627*
G37*
X1418D02*
G36*
X1415Y488D01*
G75*
G02X1404Y484I-11J11*
G01*
X1270*
G75*
G02X1259Y488I0J15*
G01*
X1245Y502*
G75*
G02X1241Y513I11J11*
G01*
Y532*
X1212*
Y560*
X1151*
X1140Y549*
Y406*
G75*
G02X1139Y403I-15J0*
G01*
G75*
G02X1143Y409I15J-4*
G01*
X1168Y434*
G75*
G02X1179Y439I11J-11*
G01*
X1212*
Y471*
X1296*
Y387*
X1212*
Y408*
X1186*
X1170Y392*
Y378*
G75*
G02X1166Y368I-15J0*
G01*
X1430*
Y374*
X1390Y414*
X1386*
Y387*
X1302*
Y471*
X1386*
Y445*
X1396*
G75*
G02X1407Y440I0J-15*
G01*
X1442Y406*
X1475*
Y368*
X1509*
Y402*
X1546*
Y368*
X1747*
Y492*
X1746*
Y419*
X1641*
Y445*
X1512*
Y431*
X1467*
Y492*
X1418*
G37*
X1781D02*
G36*
Y368D01*
X1944*
Y492*
X1781*
G37*
X1678Y685D02*
G36*
Y686D01*
X1651*
Y770*
X1735*
Y686*
X1709*
Y685*
X1747*
Y793*
X1735Y807*
Y776*
X1651*
Y793*
X1631*
X1618Y780*
Y698*
G75*
G02X1613Y687I-15J0*
G01*
X1612Y685*
X1678*
G37*
X422Y298D02*
G75*
G02X422Y293I-16J-4D01*
G01*
Y247*
G75*
G02X448Y208I-17J-39*
G01*
Y148*
G75*
G02X422Y109I-43*
G01*
Y103*
X425Y101*
X1351*
X1353Y103*
Y108*
G75*
G02X1326Y147I16J39*
G01*
Y207*
G75*
G02X1349Y245I43*
G01*
X1288*
G75*
G02X1311Y207I-19J-38*
G01*
Y147*
G75*
G02X1226I-43*
G01*
Y207*
G75*
G02X1249Y245I43*
G01*
X1188*
G75*
G02X1211Y207I-19J-38*
G01*
Y147*
G75*
G02X1126I-43*
G01*
Y207*
G75*
G02X1149Y245I43*
G01*
X816*
G75*
G02X844Y208I-11J-37*
G01*
Y148*
G75*
G02X767I-38*
G01*
Y208*
G75*
G02X794Y245I38*
G01*
X726*
G75*
G02X748Y208I-21J-37*
G01*
Y148*
G75*
G02X663I-43*
G01*
Y208*
G75*
G02X684Y245I43*
G01*
X626*
G75*
G02X648Y208I-21J-37*
G01*
Y148*
G75*
G02X563I-43*
G01*
Y208*
G75*
G02X584Y245I43*
G01*
X560*
X543Y228*
G75*
G02X548Y208I-38J-20*
G01*
Y148*
G75*
G02X463I-43*
G01*
Y208*
G75*
G02X488Y247I43*
G01*
Y282*
X473Y297*
X424*
G75*
G02X422Y298I0J17*
G01*
G36*
G75*
G02X422Y293I-16J-4*
G01*
Y247*
G75*
G02X448Y208I-17J-39*
G01*
Y148*
G75*
G02X422Y109I-43*
G01*
Y103*
X425Y101*
X1351*
X1353Y103*
Y108*
G75*
G02X1326Y147I16J39*
G01*
Y207*
G75*
G02X1349Y245I43*
G01*
X1288*
G75*
G02X1311Y207I-19J-38*
G01*
Y147*
G75*
G02X1226I-43*
G01*
Y207*
G75*
G02X1249Y245I43*
G01*
X1188*
G75*
G02X1211Y207I-19J-38*
G01*
Y147*
G75*
G02X1126I-43*
G01*
Y207*
G75*
G02X1149Y245I43*
G01*
X816*
G75*
G02X844Y208I-11J-37*
G01*
Y148*
G75*
G02X767I-38*
G01*
Y208*
G75*
G02X794Y245I38*
G01*
X726*
G75*
G02X748Y208I-21J-37*
G01*
Y148*
G75*
G02X663I-43*
G01*
Y208*
G75*
G02X684Y245I43*
G01*
X626*
G75*
G02X648Y208I-21J-37*
G01*
Y148*
G75*
G02X563I-43*
G01*
Y208*
G75*
G02X584Y245I43*
G01*
X560*
X543Y228*
G75*
G02X548Y208I-38J-20*
G01*
Y148*
G75*
G02X463I-43*
G01*
Y208*
G75*
G02X488Y247I43*
G01*
Y282*
X473Y297*
X424*
G75*
G02X422Y298I0J17*
G01*
G37*
D02*
D15*
X59Y630D02*
X43D01*
X68Y800D02*
X52D01*
X71Y492D02*
X55D01*
X72Y623D02*
Y607D01*
Y637D02*
Y653D01*
X85Y630D02*
X101D01*
X93Y775D02*
Y759D01*
Y825D02*
Y841D01*
X96Y467D02*
Y451D01*
Y517D02*
Y533D01*
X118Y800D02*
X134D01*
X121Y492D02*
X137D01*
X373Y626D02*
Y642D01*
X424Y626D02*
Y642D01*
X450Y394D02*
Y410D01*
Y626D02*
Y642D01*
X476Y394D02*
Y410D01*
Y626D02*
Y642D01*
X501Y394D02*
Y410D01*
X527Y626D02*
Y642D01*
X552Y626D02*
Y642D01*
X578Y372D02*
Y356D01*
Y394D02*
Y410D01*
Y626D02*
Y642D01*
X579Y383D02*
X595D01*
X579Y615D02*
X595D01*
X640Y458D02*
X624D01*
X665Y434D02*
Y418D01*
Y483D02*
Y499D01*
X689Y458D02*
X705D01*
X740Y368D02*
X724D01*
X765Y344D02*
Y328D01*
Y393D02*
Y409D01*
X779Y152D02*
X765Y139D01*
X779Y205D02*
X765Y218D01*
X789Y368D02*
X805D01*
X832Y152D02*
X845Y139D01*
X832Y205D02*
X845Y218D01*
X901Y835D02*
X887Y821D01*
X901Y888D02*
X887Y901D01*
X914Y339D02*
X898D01*
X931Y338D02*
Y322D01*
X948Y339D02*
X964D01*
X954Y835D02*
X967Y821D01*
X954Y888D02*
X967Y901D01*
X1237Y810D02*
X1221D01*
X1268Y779D02*
Y764D01*
Y840D02*
Y856D01*
X1298Y810D02*
X1314D01*
X1337D02*
X1321D01*
X1368Y779D02*
Y764D01*
Y840D02*
Y856D01*
X1398Y810D02*
X1414D01*
X1522Y373D02*
X1506D01*
X1527Y358D02*
Y342D01*
Y388D02*
Y404D01*
X1532Y373D02*
X1548D01*
X1544Y177D02*
X1528D01*
X1569Y122D02*
Y106D01*
Y232D02*
Y248D01*
X1594Y177D02*
X1610D01*
D02*
D18*
X305Y178D03*
X328Y865D03*
X405Y178D03*
X428Y865D03*
X505Y178D03*
X528Y865D03*
X605Y178D03*
X705D03*
X727Y861D03*
X805Y178D03*
X827Y861D03*
X927D03*
X1027D03*
X1169Y177D03*
X1269D03*
X1369D03*
X1469D03*
X1569D03*
X1669D03*
D02*
D84*
X348Y383D03*
Y615D03*
X373Y383D03*
Y615D03*
X399Y383D03*
Y615D03*
X424Y383D03*
Y615D03*
X450Y383D03*
Y615D03*
X476Y383D03*
Y615D03*
X501Y383D03*
Y615D03*
X527Y383D03*
Y615D03*
X552Y383D03*
Y615D03*
X578Y383D03*
Y615D03*
D02*
D85*
X665Y368D03*
Y458D03*
X765Y368D03*
Y458D03*
X1693Y728D03*
Y818D03*
D02*
D86*
X1254Y429D03*
X1344D03*
D02*
D87*
X1693Y462D03*
Y562D03*
D02*
D88*
X1268Y810D03*
X1368D03*
X1468D03*
D02*
D89*
X1256Y580D03*
X1366D03*
D02*
D91*
X1452Y373D03*
X1490Y463D03*
X1527Y373D03*
D02*
D92*
X93Y200D03*
Y800D03*
X96Y492D03*
X995Y493D03*
D02*
D93*
X72Y630D03*
Y686D03*
D02*
D94*
X199Y685D03*
Y755D03*
D02*
D96*
X72Y686D02*
X199D01*
X199Y685*
Y755D02*
Y842D01*
X221Y864*
X318*
X319Y865*
X328*
X234Y563D02*
Y513D01*
X348Y399*
Y386*
X348Y386*
Y383*
X328Y865D02*
Y796D01*
X359Y765*
X661*
X727Y831*
Y861*
X348Y615D02*
Y572D01*
X355Y564*
X815*
X832Y547*
Y393*
X861Y364*
X931*
X373Y383D02*
Y325D01*
X405Y293*
Y183*
X405Y183*
Y178*
X399Y383D02*
Y340D01*
X424Y315*
X480*
X505Y290*
Y183*
X505Y183*
Y178*
X399Y615D02*
Y645D01*
X423Y669*
X787*
X826Y708*
Y860*
X827Y861*
X405Y178D02*
Y96D01*
X418Y84*
X1358*
X1370Y96*
Y176*
X1369Y177*
X424Y383D02*
Y343D01*
X430Y337*
X490*
X541Y286*
X1142*
X1165Y310*
X1168*
X501Y615D02*
Y588D01*
X508Y582*
X825*
X852Y554*
Y408*
X870Y391*
X923*
X923Y390*
X931*
X505Y178D02*
Y215D01*
X553Y262*
X1457*
X1470Y250*
Y184*
X1469Y182*
Y177*
X527Y383D02*
Y327D01*
X544Y310*
X651*
X666Y324*
Y367*
X665Y368*
X551Y446D02*
Y387D01*
X552Y386*
Y383*
X727Y861D02*
Y830D01*
X662Y765*
X362*
X310Y714*
Y549*
X380Y479*
X518*
X551Y446*
X727Y861D02*
Y900D01*
X765Y937*
X1645*
X1690Y892*
Y821*
X1693Y818*
X765Y458D02*
Y507D01*
X749Y523*
X590*
X551Y484*
Y446*
X1027Y612D02*
Y861D01*
X1027Y861*
X1048Y339D02*
X1115D01*
X1154Y378*
Y398*
X1179Y423*
X1248*
X1254Y429*
X1048Y390D02*
X1109D01*
X1124Y406*
Y555*
X1144Y575*
X1251*
X1256Y580*
X1092Y696D02*
X1409D01*
X1256Y580D02*
Y513D01*
X1270Y499*
X1404*
X1602Y698*
Y786*
X1625Y809*
X1684*
X1693Y818*
X1344Y429D02*
X1396D01*
X1452Y373*
X1366Y580D02*
Y654D01*
X1409Y696*
X1444*
X1467Y720*
Y799*
X1468Y799*
Y810*
X1693Y462D02*
X1491D01*
X1490Y463*
X1693Y728D02*
Y562D01*
Y818D02*
Y820D01*
X1698Y825*
X1742*
X1764Y800*
Y794*
X1766Y793*
Y205*
X1738Y177*
X1669*
D02*
D97*
X234Y563D03*
X1027Y612D03*
X1092Y696D03*
X1168Y310D03*
D02*
D99*
X931Y339D03*
Y364D03*
Y390D03*
X1048Y339D03*
Y390D03*
X0Y0D02*
M02*
